HIERARCHY
ROOT Hips
{
	OFFSET 0.000000 0.000000 0.000000
	CHANNELS 6 Xposition Yposition Zposition Zrotation Yrotation Xrotation 
	JOINT LHipJoint
	{
		OFFSET 0.000000 0.000000 0.000000
		CHANNELS 3 Zrotation Yrotation Xrotation
		JOINT LeftUpLeg
		{
			OFFSET 1.363060 -1.794630 0.839290
			CHANNELS 3 Zrotation Yrotation Xrotation
			JOINT LeftLeg
			{
				OFFSET 2.448110 -6.726130 0.000000
				CHANNELS 3 Zrotation Yrotation Xrotation
				JOINT LeftFoot
				{
					OFFSET 2.562200 -7.039590 0.000000
					CHANNELS 3 Zrotation Yrotation Xrotation
					JOINT LeftToeBase
					{
						OFFSET 0.157640 -0.433110 2.322550
						CHANNELS 3 Zrotation Yrotation Xrotation
						End Site
						{
							OFFSET 0.000000 0.000000 0.000000
						}
					}
				}
			}
		}
	}
	JOINT RHipJoint
	{
		OFFSET 0.000000 0.000000 0.000000
		CHANNELS 3 Zrotation Yrotation Xrotation
		JOINT RightUpLeg
		{
			OFFSET -1.305520 -1.794630 0.839290
			CHANNELS 3 Zrotation Yrotation Xrotation
			JOINT RightLeg
			{
				OFFSET -2.542530 -6.985550 0.000000
				CHANNELS 3 Zrotation Yrotation Xrotation
				JOINT RightFoot
				{
					OFFSET -2.568260 -7.056230 0.000000
					CHANNELS 3 Zrotation Yrotation Xrotation
					JOINT RightToeBase
					{
						OFFSET -0.164730 -0.452590 2.363150
						CHANNELS 3 Zrotation Yrotation Xrotation
						End Site
						{
							OFFSET 0.000000 0.000000 0.000000
						}
					}
				}
			}
		}
	}
	JOINT LowerBack
	{
		OFFSET 0.000000 0.000000 0.000000
		CHANNELS 3 Zrotation Yrotation Xrotation
		JOINT Spine
		{
			OFFSET 0.028270 2.035590 -0.193380
			CHANNELS 3 Zrotation Yrotation Xrotation
			JOINT Spine1
			{
				OFFSET 0.056720 2.048850 -0.042750
				CHANNELS 3 Zrotation Yrotation Xrotation
				JOINT Neck
				{
					OFFSET 0.000000 0.000000 0.000000
					CHANNELS 3 Zrotation Yrotation Xrotation
					JOINT Neck1
					{
						OFFSET -0.054170 1.746240 0.172020
						CHANNELS 3 Zrotation Yrotation Xrotation
						JOINT Head
						{
							OFFSET 0.104070 1.761360 -0.123970
							CHANNELS 3 Zrotation Yrotation Xrotation
							End Site
							{
								OFFSET 0.000000 0.000000 0.000000
							}
						}
					}
				}
				JOINT LeftShoulder
				{
					OFFSET 0.000000 0.000000 0.000000
					CHANNELS 3 Zrotation Yrotation Xrotation
					JOINT LeftArm
					{
						OFFSET 3.362410 1.200890 -0.311210
						CHANNELS 3 Zrotation Yrotation Xrotation
						JOINT LeftForeArm
						{
							OFFSET 4.983000 -0.000000 -0.000000
							CHANNELS 3 Zrotation Yrotation Xrotation
							JOINT LeftHand
							{
								OFFSET 3.483560 -0.000000 -0.000000
								CHANNELS 3 Zrotation Yrotation Xrotation
								JOINT LeftFingerBase
								{
									OFFSET 0.000000 0.000000 0.000000
									CHANNELS 3 Zrotation Yrotation Xrotation
									JOINT LeftHandIndex1
									{
										OFFSET 0.715260 -0.000000 -0.000000
										CHANNELS 3 Zrotation Yrotation Xrotation
										End Site
										{
											OFFSET 0.000000 0.000000 0.000000
										}
									}
								}
								JOINT LThumb
								{
									OFFSET 0.000000 0.000000 0.000000
									CHANNELS 3 Zrotation Yrotation Xrotation
									End Site
									{
										OFFSET 0.000000 0.000000 0.000000
									}
								}
							}
						}
					}
				}
				JOINT RightShoulder
				{
					OFFSET 0.000000 0.000000 0.000000
					CHANNELS 3 Zrotation Yrotation Xrotation
					JOINT RightArm
					{
						OFFSET -3.136600 1.374050 -0.404650
						CHANNELS 3 Zrotation Yrotation Xrotation
						JOINT RightForeArm
						{
							OFFSET -5.241900 -0.000000 -0.000000
							CHANNELS 3 Zrotation Yrotation Xrotation
							JOINT RightHand
							{
								OFFSET -3.444170 -0.000000 -0.000000
								CHANNELS 3 Zrotation Yrotation Xrotation
								JOINT RightFingerBase
								{
									OFFSET 0.000000 0.000000 0.000000
									CHANNELS 3 Zrotation Yrotation Xrotation
									JOINT RightHandIndex1
									{
										OFFSET -0.622530 -0.000000 -0.000000
										CHANNELS 3 Zrotation Yrotation Xrotation
										End Site
										{
											OFFSET 0.000000 0.000000 0.000000
										}
									}
								}
								JOINT RThumb
								{
									OFFSET 0.000000 0.000000 0.000000
									CHANNELS 3 Zrotation Yrotation Xrotation
									End Site
									{
										OFFSET 0.000000 0.000000 0.000000
									}
								}
							}
						}
					}
				}
			}
		}
	}
}
MOTION
Frames: 4
Frame Time: 0.008333
4.000742 17.191933 -0.151300 -172.227701 51.701112 -155.928878 -8.735758 2.477447 3.510788 -26.520451 3.331092 -34.857164 -4.240812 -1.517706 11.004296 1.454922 2.447851 -16.369162 -0.784200 -0.000000 -26.202700 9.242250 -5.099108 -0.771111 13.596809 -19.900932 -4.819865 3.250106 -0.480508 11.542957 0.463613 2.704145 10.101469 0.318500 0.000000 -73.109100 -1.792566 0.764202 -3.740326 -1.036732 0.794216 -3.436501 -5.045611 0.801657 1.132578 8.955149 -7.526701 -6.127927 -1.563645 -0.139949 0.413559 0.000000 0.000000 0.000000 -3.899962 16.793089 1.469685 -52.130633 7.516409 -5.735553 -0.519476 -80.667553 -0.028693 9.183827 2.167218 0.168429 -0.240870 0.150422 -0.000000 0.000000 0.000000 0.000000 0.000000 0.000000 0.000000 3.879355 -1.087839 -0.939486 38.253458 26.003903 0.738754 -179.985915 87.475725 179.974886 -3.255877 4.499269 -0.141626 0.012643 -0.484964 -0.000000 0.000000 0.000000 0.000000 0.000000 0.000000 0.000000 
4.138500 17.139435 -0.245357 -171.754525 51.006651 -155.731392 -8.716300 2.537787 3.541192 -26.841677 3.582980 -34.593759 -4.273289 -1.589196 10.493330 1.431344 2.250095 -16.477001 -0.777399 0.000000 -25.737700 9.256430 -5.220821 -0.781863 13.637258 -20.221191 -4.578660 3.221109 -0.622551 12.767374 0.564026 3.800905 10.381320 0.662200 0.000000 -74.927700 -1.863738 0.753075 -3.797564 -1.053612 0.786235 -3.451100 -5.057157 0.792931 1.121906 9.296931 -7.702163 -6.098553 -1.526553 -0.137839 0.422273 0.000000 0.000000 0.000000 -3.633887 16.685358 1.415099 -52.930886 8.180865 -5.675235 -0.499348 -80.895916 -0.028405 9.133277 2.125475 0.163926 -0.237404 0.151308 -0.000000 0.000000 0.000000 0.000000 0.000000 0.000000 0.000000 3.975772 -1.243616 -0.942800 38.153651 25.979928 0.687827 -179.997527 86.684516 179.975867 -3.080835 4.598433 -0.136730 0.010206 -0.490792 -0.000000 0.000000 0.000000 0.000000 0.000000 0.000000 0.000000 
4.276974 17.083437 -0.340988 -171.271566 50.381887 -155.498928 -8.707969 2.579789 3.611202 -26.941968 3.573078 -34.339211 -4.262885 -1.630096 10.256579 1.433444 2.185975 -16.628698 -0.788000 -0.000000 -24.382100 9.288326 -5.333871 -0.790548 13.627761 -20.504294 -4.494452 3.181313 -0.787571 14.238786 0.687097 5.263940 10.768236 1.128000 -0.000000 -77.198700 -1.951581 0.744904 -3.886266 -1.077069 0.781459 -3.471730 -5.078135 0.787456 1.111876 9.652374 -7.877775 -6.082431 -1.497099 -0.136094 0.427106 0.000000 0.000000 0.000000 -3.358774 16.577781 1.362478 -53.760630 8.852208 -5.646906 -0.480300 -81.113441 -0.028022 9.045277 2.094938 0.159818 -0.233290 0.151999 -0.000000 0.000000 0.000000 0.000000 0.000000 0.000000 0.000000 4.126861 -1.394135 -0.937217 38.072716 25.985386 0.669747 179.989901 85.937616 179.976897 -2.905553 4.710089 -0.131932 0.008010 -0.496832 -0.000000 0.000000 0.000000 0.000000 0.000000 0.000000 0.000000 
4.415960 17.024083 -0.437637 -170.800225 49.829845 -155.240644 -8.705367 2.603626 3.724680 -26.833747 3.264610 -34.113028 -4.209365 -1.638274 10.324471 1.470621 2.289591 -16.859968 -0.825000 -0.000000 -22.037100 9.343553 -5.433491 -0.796524 13.553814 -20.737367 -4.579384 3.122223 -0.972357 15.957941 0.821121 7.081229 11.296764 1.725800 0.000000 -79.751300 -2.067292 0.735505 -4.008516 -1.109184 0.776575 -3.498769 -5.108401 0.781858 1.102686 10.021964 -8.047214 -6.081790 -1.475554 -0.134692 0.427399 0.000000 0.000000 0.000000 -3.084212 16.476657 1.314694 -54.605783 9.517132 -5.653720 -0.463029 -81.312718 -0.027565 8.921468 2.085361 0.156806 -0.228590 0.152347 -0.000000 0.000000 0.000000 0.000000 0.000000 0.000000 0.000000 4.335575 -1.534271 -0.922205 38.006303 26.027253 0.682981 179.976252 85.236935 179.978006 -2.725538 4.835187 -0.126729 0.005951 -0.503128 -0.000000 0.000000 0.000000 0.000000 0.000000 0.000000 0.000000 
